<svg xmlns="http://www.w3.org/2000/svg" viewBox="0 0 383.45 152.43"><defs><style>.cls-1,.cls-2{fill:#fff;}.cls-2{font-size:120px;font-family:RockinsodaRegular, Rockinsoda;}</style></defs><title>iters-blanco</title><g id="Capa_2" data-name="Capa 2"><g id="Capa_1-2" data-name="Capa 1"><path class="cls-1" d="M17.24,37.33a12.81,12.81,0,0,0,3.3,8.26,9.4,9.4,0,0,0,8.22,2.93,7.46,7.46,0,0,0,6.06-6c.07,2.9.35,6.23,2.7,7.94a6.41,6.41,0,0,0,2.5,1,9.78,9.78,0,0,0,10.82-6.22c.08,2.71.4,5.88,2.71,7.3a4.89,4.89,0,0,0,2.33.68A7.29,7.29,0,0,0,62.1,50a10.88,10.88,0,0,0,1.63-7,8.92,8.92,0,0,0,2.63,7.24,6.09,6.09,0,0,0,7.36.67,8.38,8.38,0,0,0,2.78-4.54c.8-2.66,1-5.75-.57-8a9,9,0,0,0,4.72,3.88,3.46,3.46,0,0,0,2.75,0A3.51,3.51,0,0,0,84.65,41a11.19,11.19,0,0,0-.24-12.71,4.48,4.48,0,0,0,7.83,1.26,7.19,7.19,0,0,0,1.18-4A16.47,16.47,0,0,0,92.36,19l-8.75-5.3L69.35,18.77l-6.79,13.9-8.92,3.52-20.51-5.7-12.32,0Z"/><path class="cls-1" d="M18.78,83.33a7.21,7.21,0,0,1,11.06,5.91,6.16,6.16,0,0,1,2.5-3.82,4.22,4.22,0,0,1,4.43-.2,6.38,6.38,0,0,1,1.83,2,27,27,0,0,1,3.07,6.44,19.29,19.29,0,0,1,3.17-6.46c1.58-1.83,4.1-3.06,6.42-2.4A7.81,7.81,0,0,1,55,87.65a21.35,21.35,0,0,1,3.69,6.83,14.06,14.06,0,0,1,2.09-6.06c1.29-1.73,3.73-2.81,5.67-1.85C69,87.81,69.16,91.38,71,93.5c.18-4,.62-8.55,3.79-11a4.29,4.29,0,0,1,3.56-1c1.56.38,2.54,1.88,3.36,3.25l2.43,4.06a37,37,0,0,1,.23-7.21,8,8,0,0,1,1-3.37,3.22,3.22,0,0,1,2.94-1.62,4,4,0,0,1,1.68.69,13.67,13.67,0,0,1,4.06,3.92,17.74,17.74,0,0,1-.9-7.09c.36-2.37,1.95-4.73,4.3-5.21,2-.39,4,.59,5.51,1.87l-2.54,12.75S88,101.29,87.32,101.63s-15.74,10.24-15.74,10.24l-19.27-.06L35,104.29,19.47,93.94,15,83.67Z"/><path class="cls-1" d="M1.07,46.14C-2.65,63.39,3.72,77.83,14.35,90.69c9.77,11.82,22.06,19.74,37.58,22.23,15.22,2.43,28-2.6,38.76-12.81C105.21,86.39,113,65.68,112.56,43.87c-.18-10.16-2.19-19.82-8-28.39a22.74,22.74,0,0,0-29.16-8C70,10.17,67.58,15.44,65.12,20.56,64,23,63,25.48,61.65,27.8c-3.19,5.59-6.66,6.67-12.72,4.5s-12.32-4.36-18.59-6.22C15.26,21.61,4.41,30.65,1.07,46.14Zm12.27,4.93C16,38.6,24.75,31.33,36.89,34.93c5,1.49,10,3.23,15,5s7.66.88,10.22-3.62c1.07-1.86,1.86-3.88,2.8-5.82,2-4.12,3.91-8.36,8.29-10.5A18.31,18.31,0,0,1,96.63,26.4c4.64,6.89,6.26,14.67,6.41,22.84.35,17.54-5.92,34.21-17.6,45.25-8.69,8.21-18.93,12.26-31.19,10.3-12.48-2-22.37-8.37-30.23-17.88C15.47,76.56,10.34,64.94,13.34,51.07Z"/><text class="cls-2" transform="translate(128.13 102.24)">ITERS</text></g></g></svg>