<svg xmlns="http://www.w3.org/2000/svg" viewBox="0 0 173.91 47.14"><defs><style>.cls-1{fill:#fff;}.cls-2{fill:#d06d39;}.cls-3{fill:#8e2c36;}</style></defs><g id="Capa_2" data-name="Capa 2"><g id="Menu"><g id="Logo_Galicia"><rect class="cls-1" width="173.91" height="47.14"/><rect class="cls-1" x="1.81" y="1.81" width="170.29" height="43.53"/><path class="cls-2" d="M172.16,1.81H38.21a25.11,25.11,0,0,1-5.33,43.58H172.16Z"/><path class="cls-3" d="M23.62,1.81H1.81V45.39H23.62a21.79,21.79,0,1,0,0-43.58"/><path class="cls-1" d="M116.7,13.41a2.23,2.23,0,0,1-.65,1.63,2.14,2.14,0,0,1-1.61.67,2.08,2.08,0,0,1-1.6-.67,2.41,2.41,0,0,1,0-3.27,2.11,2.11,0,0,1,1.6-.66,2.16,2.16,0,0,1,1.61.66,2.24,2.24,0,0,1,.65,1.64"/><path class="cls-1" d="M95.61,36.58l-.32-2.06h-.07l-.69.66a8.28,8.28,0,0,1-1.07.81A7.06,7.06,0,0,1,92,36.7a5.25,5.25,0,0,1-1.81.31,4.68,4.68,0,0,1-1.77-.37,4.81,4.81,0,0,1-1.59-1A5.24,5.24,0,0,1,85.7,34a5.44,5.44,0,0,1-.44-2.23,4.46,4.46,0,0,1,1-3.08,6.62,6.62,0,0,1,2.53-1.72,12.55,12.55,0,0,1,3.25-.76c1.15-.11,2.22-.18,3.18-.18v-.31a4.16,4.16,0,0,0-.65-2.55,2.78,2.78,0,0,0-2.32-.86,7.28,7.28,0,0,0-1.68.2c-.56.13-1.06.26-1.51.41a13.18,13.18,0,0,0-1.52.57l-1-2.56A19.54,19.54,0,0,1,88.73,20a16.65,16.65,0,0,1,2.11-.64,10.14,10.14,0,0,1,2.36-.28,6,6,0,0,1,4.52,1.61,6.17,6.17,0,0,1,1.57,4.51V36.58Zm-.36-8c-.57,0-1.19,0-1.89.11a9.52,9.52,0,0,0-2,.41,3.89,3.89,0,0,0-1.57.89,2,2,0,0,0-.61,1.53,2,2,0,0,0,.71,1.64,2.46,2.46,0,0,0,1.55.56,3.77,3.77,0,0,0,1.44-.28,7.2,7.2,0,0,0,1.21-.64,5.17,5.17,0,0,0,1.14-.92Z"/><rect class="cls-1" x="112.33" y="19.5" width="4.26" height="17.08"/><path class="cls-1" d="M141.39,13.41a2.27,2.27,0,0,1-.65,1.63,2.16,2.16,0,0,1-1.62.67,2.1,2.1,0,0,1-1.6-.67,2.44,2.44,0,0,1,0-3.27,2.13,2.13,0,0,1,1.6-.66,2.19,2.19,0,0,1,1.62.66,2.28,2.28,0,0,1,.65,1.64"/><rect class="cls-1" x="137.01" y="19.5" width="4.25" height="17.08"/><path class="cls-1" d="M154.43,36.58l-.31-2.06H154c-.16.17-.39.38-.69.66a8.13,8.13,0,0,1-1.06.81,7.43,7.43,0,0,1-1.44.71,5.19,5.19,0,0,1-1.8.31,4.68,4.68,0,0,1-1.77-.37,4.85,4.85,0,0,1-1.6-1A4.92,4.92,0,0,1,144.53,34a5.29,5.29,0,0,1-.45-2.23,4.46,4.46,0,0,1,1-3.08,6.73,6.73,0,0,1,2.54-1.72,12.48,12.48,0,0,1,3.24-.76c1.15-.11,2.22-.18,3.19-.18v-.31a4.09,4.09,0,0,0-.66-2.55,2.75,2.75,0,0,0-2.32-.86,7.43,7.43,0,0,0-1.69.2c-.54.13-1,.26-1.5.41a13.91,13.91,0,0,0-1.52.57l-1-2.56a18.92,18.92,0,0,1,2.13-.88,16.47,16.47,0,0,1,2.1-.64,10.2,10.2,0,0,1,2.36-.28,6,6,0,0,1,4.52,1.61,6.18,6.18,0,0,1,1.58,4.51V36.58Zm-.35-8c-.57,0-1.2,0-1.9.11a9.66,9.66,0,0,0-2,.41,3.85,3.85,0,0,0-1.56.89,2,2,0,0,0-.62,1.53,2,2,0,0,0,.71,1.64,2.46,2.46,0,0,0,1.55.56,3.73,3.73,0,0,0,1.44-.28,7.85,7.85,0,0,0,1.23-.64,5.61,5.61,0,0,0,1.13-.92Z"/><rect class="cls-1" x="103.54" y="10.5" width="4.25" height="26.07"/><path class="cls-1" d="M82.18,23.61H73.65v3.58H77.9v5.63l-.82.15c-.26,0-.57.07-.94.1s-.77,0-1.22,0a7.43,7.43,0,0,1-3.07-.64,7.25,7.25,0,0,1-2.4-1.76A7.72,7.72,0,0,1,67.87,28a10,10,0,0,1-.57-3.44A9.37,9.37,0,0,1,68,21a7.73,7.73,0,0,1,1.82-2.75,8.34,8.34,0,0,1,2.74-1.75,9.32,9.32,0,0,1,3.39-.63c.64,0,1.22,0,1.75.09s1,.13,1.41.2.87.18,1.27.24l1.17-3.32a17.31,17.31,0,0,0-1.81-.5c-.56-.12-1.25-.23-2-.35A18,18,0,0,0,75,12.07a13.14,13.14,0,0,0-4.77.86,11.69,11.69,0,0,0-6.64,6.43,13,13,0,0,0-1,5.17,14.26,14.26,0,0,0,.89,5.17,11.39,11.39,0,0,0,2.45,3.93,10.48,10.48,0,0,0,3.65,2.5A11.82,11.82,0,0,0,74.1,37a15.43,15.43,0,0,0,3-.28c1-.17,1.83-.37,2.58-.58s1.75-.54,2.55-.85Z"/><path class="cls-1" d="M133.83,34.92a12.18,12.18,0,0,1-2,1.06,14,14,0,0,1-2.13.71,9.87,9.87,0,0,1-2.51.32,6.8,6.8,0,0,1-2.82-.6,7.12,7.12,0,0,1-2.32-1.68,8.21,8.21,0,0,1-1.58-2.61,9.6,9.6,0,0,1-.58-3.39,11,11,0,0,1,.63-3.69,9.9,9.9,0,0,1,1.8-3.07,8.68,8.68,0,0,1,2.76-2.11,8.06,8.06,0,0,1,3.57-.78,8.83,8.83,0,0,1,1.73.17c.54.11,1,.22,1.49.33l1.45.46-1.1,2.88-.71-.18a7.57,7.57,0,0,0-.76-.14,7.49,7.49,0,0,0-1.09-.07,5.67,5.67,0,0,0-2.27.44,4.92,4.92,0,0,0-1.71,1.24,6.1,6.1,0,0,0-1.11,1.87,6.5,6.5,0,0,0-.4,2.36,5.3,5.3,0,0,0,1.23,3.65,4.19,4.19,0,0,0,3.26,1.38,11,11,0,0,0,1.63-.11,10.14,10.14,0,0,0,1.22-.24,5.27,5.27,0,0,0,1.14-.4Z"/><path class="cls-1" d="M30.11,13.13h0a5,5,0,0,1-1.16.48,17.62,17.62,0,0,1-4.83.64,17.75,17.75,0,0,1,.64-4.8,5,5,0,0,1,.47-1.13h0a1.66,1.66,0,0,0-3.31,0h0l0,0a5.3,5.3,0,0,1,.45,1.12,17.52,17.52,0,0,1,.65,4.8,18,18,0,0,1-4.85-.65A4.57,4.57,0,0,1,17,13.13h0a1.66,1.66,0,1,0,0,3.32h0A5.1,5.1,0,0,1,18.19,16,17.8,17.8,0,0,1,23,15.34a14.68,14.68,0,0,1-.87,4.75,2.39,2.39,0,0,1-1.27,1.4h0L23.58,41l2.69-19.5h0A2.38,2.38,0,0,1,25,20.09L25,20h0a14.46,14.46,0,0,1-.83-4.68A17.94,17.94,0,0,1,29,16a5.38,5.38,0,0,1,1.15.47h0a1.66,1.66,0,1,0,0-3.32Z"/></g></g></g></svg>